<?xml version="1.0" standalone="no"?>
<!DOCTYPE svg PUBLIC "-//W3C//DTD SVG 20010904//EN"
 "http://www.w3.org/TR/2001/REC-SVG-20010904/DTD/svg10.dtd">
<svg version="1.0" xmlns="http://www.w3.org/2000/svg"
 width="997.000000pt" height="997.000000pt" viewBox="0 0 997.000000 997.000000"
 preserveAspectRatio="xMidYMid meet">
<metadata>
Created by potrace 1.11, written by Peter Selinger 2001-2013
</metadata>
<g transform="translate(0.000000,997.000000) scale(0.100000,-0.100000)"
fill="#000000" stroke="none">
<path d="M6480 9957 c-64 -35 -423 -242 -472 -273 -21 -13 -40 -24 -42 -24 -2
0 -51 -28 -108 -61 -57 -34 -126 -75 -154 -90 -121 -67 -450 -259 -461 -268
-7 -6 -18 -11 -24 -11 -7 0 -20 -6 -28 -14 -14 -12 -332 -196 -406 -235 -16
-9 -31 -19 -33 -23 -2 -5 -10 -8 -18 -8 -8 0 -14 -4 -14 -10 0 -5 -4 -10 -10
-10 -5 0 -69 -35 -142 -77 -73 -42 -153 -88 -178 -102 -25 -13 -47 -27 -50
-30 -3 -3 -21 -14 -40 -23 -19 -10 -42 -22 -50 -28 -8 -5 -71 -42 -140 -81
-69 -40 -210 -122 -315 -182 -104 -60 -210 -121 -235 -135 -25 -13 -49 -28
-55 -32 -5 -5 -37 -23 -70 -40 -33 -18 -76 -42 -95 -55 -33 -21 -200 -118
-285 -165 -39 -22 -148 -86 -210 -123 -16 -9 -38 -20 -47 -23 -10 -4 -18 -10
-18 -15 0 -5 -5 -9 -10 -9 -9 0 -445 -247 -583 -331 -27 -16 -52 -29 -57 -29
-5 0 -10 -3 -12 -7 -1 -5 -19 -17 -38 -27 -19 -10 -62 -35 -95 -54 -33 -19
-79 -45 -102 -58 -23 -13 -93 -54 -155 -90 -62 -37 -131 -77 -153 -89 -22 -12
-112 -63 -200 -114 -169 -99 -205 -120 -258 -150 -17 -10 -120 -69 -227 -131
-107 -62 -205 -118 -217 -124 l-23 -11 3 -1610 2 -1610 110 -63 c61 -35 128
-74 150 -86 22 -13 56 -33 75 -45 19 -11 41 -24 49 -28 7 -3 101 -57 209 -120
107 -62 196 -113 197 -113 2 0 32 -17 66 -38 35 -22 84 -50 109 -64 25 -14
104 -59 177 -101 72 -43 136 -77 141 -77 6 0 12 -4 14 -8 2 -4 39 -28 83 -53
44 -25 155 -89 247 -142 92 -53 172 -97 178 -97 5 0 10 -4 10 -8 0 -4 24 -20
52 -35 29 -15 60 -32 68 -37 30 -20 271 -160 274 -160 2 0 55 -30 117 -66 63
-37 128 -74 144 -84 17 -9 53 -31 81 -47 27 -17 70 -41 95 -55 71 -41 110 -62
189 -109 41 -24 89 -51 105 -59 17 -8 32 -18 35 -21 3 -3 41 -26 85 -51 138
-78 299 -170 330 -190 17 -10 38 -21 48 -24 9 -4 17 -10 17 -15 0 -5 9 -9 19
-9 11 0 21 -4 23 -8 3 -7 37 -28 198 -120 19 -11 64 -36 98 -56 35 -20 68 -36
72 -36 5 0 10 -3 12 -7 4 -10 235 -143 247 -143 5 0 11 -4 13 -8 2 -5 30 -23
63 -42 33 -18 101 -57 150 -85 303 -177 391 -228 436 -252 27 -16 58 -32 67
-38 10 -5 53 -31 97 -56 44 -26 162 -95 262 -153 100 -58 185 -106 188 -106 4
0 26 -13 50 -30 24 -16 47 -30 50 -30 4 0 19 -8 33 -18 15 -11 52 -32 82 -49
30 -17 83 -47 117 -67 34 -20 64 -36 68 -36 3 0 13 -7 21 -15 27 -26 -14 -47
559 285 55 32 171 99 257 149 86 50 172 99 190 109 18 11 121 70 228 132 107
62 220 126 250 143 30 17 73 42 95 56 22 13 65 38 95 54 30 16 62 36 71 43 8
8 18 14 21 14 3 0 45 23 94 51 92 54 106 62 214 124 36 21 94 55 130 75 36 20
121 69 190 110 116 67 254 147 368 212 l47 26 0 3387 0 3386 -135 78 c-74 43
-175 102 -225 131 -49 28 -108 62 -130 75 -191 109 -586 337 -615 356 -8 5
-44 25 -80 45 -71 40 -72 40 -239 138 -62 36 -115 66 -116 66 -2 0 -32 17 -66
39 -35 21 -84 49 -109 62 -25 14 -88 50 -140 80 -137 81 -537 312 -590 342
-25 14 -90 52 -145 84 -55 33 -115 66 -133 74 -17 7 -32 17 -32 21 0 12 -22 9
-50 -5z"/>
</g>
</svg>
